<svg height="64" viewBox="0 0 1025 1024" width="64.0625" xmlns="http://www.w3.org/2000/svg"><path d="m514.9637037 893.30201058a383.12857143 383.12857143 0 1 0 0-766.25714286 383.12857143 383.12857143 0 0 0 0 766.25714286zm0 69.65904762a452.78857143 452.78857143 0 1 1 0-905.57619048 452.78857143 452.78857143 0 0 1 0 905.57619048zm-452.78952381-487.61714286h835.91714286v69.66h-835.91714286zm452.78952381 417.95904762c62.2047619 0 139.31809524-166.97428571 139.31809524-383.12952381s-77.11333333-383.12761905-139.31714286-383.12761904-139.32095238 166.97428571-139.32095238 383.12666666 77.11333333 383.12952381 139.32 383.12952381zm0 69.65904762c-115.42857143 0-208.98095238-202.70952381-208.98095238-452.78857143s93.55238095-452.78761905 208.98095238-452.78761904 208.97809524 202.70952381 208.97809524 452.78571428-93.55238095 452.79142857-208.97714286 452.79142857z" fill="#515151"/></svg>