<svg height="64" viewBox="0 0 1024 1024" width="64" xmlns="http://www.w3.org/2000/svg"><path d="m192 160a32 32 0 0 0 -32 32v192a32 32 0 0 0 32 32h192a32 32 0 0 0 32-32v-192a32 32 0 0 0 -32-32zm0-64h192a96 96 0 0 1 96 96v192a96 96 0 0 1 -96 96h-192a96 96 0 0 1 -96-96v-192a96 96 0 0 1 96-96zm0 512a32 32 0 0 0 -32 32v192a32 32 0 0 0 32 32h192a32 32 0 0 0 32-32v-192a32 32 0 0 0 -32-32zm0-64h192a96 96 0 0 1 96 96v192a96 96 0 0 1 -96 96h-192a96 96 0 0 1 -96-96v-192a96 96 0 0 1 96-96zm448 64a32 32 0 0 0 -32 32v192a32 32 0 0 0 32 32h192a32 32 0 0 0 32-32v-192a32 32 0 0 0 -32-32zm0-64h192a96 96 0 0 1 96 96v192a96 96 0 0 1 -96 96h-192a96 96 0 0 1 -96-96v-192a96 96 0 0 1 96-96zm-37.728-277.728a32 32 0 0 0 0 45.28l112 112a32 32 0 0 0 45.28 0l112-112a32 32 0 0 0 0-45.28l-112-112a32 32 0 0 0 -45.28 0zm-45.248-45.248 112-112a96 96 0 0 1 135.776 0l112 112a96 96 0 0 1 0 135.776l-112 112a96 96 0 0 1 -135.776 0l-112-112a96 96 0 0 1 0-135.776z" fill="#8a8a8a"/></svg>