<svg height="64" viewBox="0 0 1024 1024" width="64" xmlns="http://www.w3.org/2000/svg"><path d="m512.002 63.84c-247.122 0-448.162 201.04-448.162 448.162 0 247.143 201.04 448.157 448.162 448.157 247.13 0 448.157-201.026 448.157-448.157.001-247.122-201.026-448.162-448.157-448.162zm0 843.592c-218.047 0-395.435-177.388-395.435-395.429 0-218.047 177.388-395.435 395.435-395.435 218.042 0 395.43 177.4 395.43 395.435 0 218.041-177.388 395.43-395.43 395.43zm0-474.516c-14.553 0-26.358 11.805-26.358 26.353v303.167c0 14.578 11.805 26.358 26.358 26.358 14.547 0 26.37-11.78 26.37-26.358v-303.167c0-14.548-11.822-26.353-26.37-26.353zm-52.733-131.818c0-29.115 23.614-52.73 52.733-52.73 29.127 0 52.728 23.615 52.728 52.73 0 29.118-23.6 52.728-52.728 52.728-29.12 0-52.733-23.597-52.733-52.728zm0 0" fill="#515151"/></svg>