<svg height="24" viewBox="0 0 1024 1024" width="24" xmlns="http://www.w3.org/2000/svg"><g fill="#dbdbdb"><path d="m307.2 307.2c-12.8 12.8-12.8 44.8 0 57.6l153.6 147.2-147.2 147.2c-12.8 12.8-12.8 38.4 0 51.2s38.4 12.8 51.2 0l147.2-147.2 147.2 147.2c12.8 12.8 38.4 12.8 51.2 0s12.8-38.4 0-51.2l-147.2-147.2 147.2-147.2c12.8-12.8 12.8-38.4 0-51.2s-38.4-12.8-51.2 0l-147.2 147.2-147.2-153.6c-12.8-12.8-44.8-12.8-57.6 0z"/><path d="m512 1024c-281.6 0-512-230.4-512-512s230.4-512 512-512c108.8 0 211.2 32 300.8 96 12.8 12.8 19.2 32 6.4 44.8s-32 19.2-44.8 6.4c-76.8-57.6-166.4-83.2-262.4-83.2-249.6 0-448 198.4-448 448s198.4 448 448 448 448-198.4 448-448c0-76.8-19.2-153.6-57.6-224-6.4-12.8-6.4-32 12.8-44.8 12.8-6.4 32-6.4 44.8 12.8 38.4 76.8 64 166.4 64 256 0 281.6-230.4 512-512 512z"/></g></svg>