<svg height="64" viewBox="0 0 1024 1024" width="64" xmlns="http://www.w3.org/2000/svg"><path d="m631.467 727.467a34.133 34.133 0 0 1 -68.267 0v-298.667a34.133 34.133 0 1 1 68.267 0zm-170.667 0a34.133 34.133 0 0 1 -68.267 0v-298.667a34.133 34.133 0 0 1 68.267 0zm-204.8-435.2 42.667 571.733a42.667 42.667 0 0 0 42.666 38.4h341.334a42.667 42.667 0 0 0 42.666-37.547q26.454-384 42.667-572.16zm384-68.267v-26.88a75.52 75.52 0 0 0 -75.52-75.52h-107.093a75.52 75.52 0 0 0 -73.387 75.52v26.88zm68.267 0h187.733a34.133 34.133 0 1 1 0 68.267h-61.013q-14.507 188.586-42.667 576.853a109.653 109.653 0 0 1 -109.653 101.547h-343.467a109.653 109.653 0 0 1 -109.227-101.12l-42.666-576.854h-59.307a34.133 34.133 0 0 1 0-68.266h185.6v-27.307a143.787 143.787 0 0 1 143.787-143.787h109.653a143.787 143.787 0 0 1 143.787 143.787z" fill="#515151"/></svg>