<?xml version="1.0" standalone="no"?><!DOCTYPE svg PUBLIC "-//W3C//DTD SVG 1.1//EN" "http://www.w3.org/Graphics/SVG/1.1/DTD/svg11.dtd"><svg t="1636442546849" class="icon" viewBox="0 0 1024 1024" version="1.1" xmlns="http://www.w3.org/2000/svg" p-id="2697" xmlns:xlink="http://www.w3.org/1999/xlink" width="64" height="64"><defs><style type="text/css"></style></defs><path d="M364.715 104.862c19.335 0 35.03-15.752 35.03-35.143V35.485a35.087 35.087 0 0 0-70.174 0v34.234c0 19.391 15.696 35.143 35.087 35.143z m250.498 0c19.335 0 35.087-15.752 35.087-35.143V35.485a35.087 35.087 0 0 0-70.174 0v34.234c0 19.391 15.696 35.143 35.087 35.143zM395.651 183.51c12.567 20.302 47.199 54.592 96.787 54.592 49.417 0 84.39-34.006 97.299-54.137a34.916 34.916 0 0 0-10.407-48.052 35.314 35.314 0 0 0-48.45 9.838c-0.17 0.227-15.354 22.178-38.442 22.178-22.463 0-36.395-20.359-37.362-21.78a35.087 35.087 0 0 0-59.425 37.361z m79.044 741.088H209.128c-45.153 0-81.889-36.736-81.889-81.888V164.174c0-45.152 36.736-81.888 81.889-81.888a35.087 35.087 0 0 0 0-70.173A152.29 152.29 0 0 0 57.066 164.174v678.592c0 83.878 68.24 152.061 152.118 152.061h265.511a35.087 35.087 0 0 0 0-70.173z m448.11-760.48c0-83.878-68.24-152.061-152.061-152.061a35.087 35.087 0 1 0 0 70.173c45.152 0 81.888 36.736 81.888 81.889v479.67c0 1.138 0.227 2.275 0.341 3.413-3.526 6.141-12.454 16.207-33.437 16.207H652.688c-51.578 0-104.236 11.203-104.236 94.399V906.57c0 42.82 16.718 71.084 49.872 83.935 7.677 2.958 15.013 4.322 22.064 4.322 22.52 0 42.82-13.761 64.885-34.177l1.706-1.706c235.827-250.213 235.827-290.248 235.827-303.44a35.826 35.826 0 0 0-0.57-6.256 34.86 34.86 0 0 0 0.57-5.46V164.175z m-286.04 745.751c-7.676 7.052-12.794 10.862-15.922 12.91a44.64 44.64 0 0 1-2.218-16.208V757.863c0-15.98 2.332-20.472 2.161-20.472 1.024-0.682 6.938-3.753 31.846-3.753h140.745a3861.254 3861.254 0 0 1-156.611 176.287z m110.55-400H232.557a35.087 35.087 0 0 0 0 70.173h514.758a35.087 35.087 0 1 0 0-70.174z m0-175.491H232.557a35.087 35.087 0 0 0 0 70.173h514.758a35.087 35.087 0 1 0 0-70.173z" p-id="2698" fill="#515151"></path></svg>