<svg height="64" viewBox="0 0 1024 1024" width="64" xmlns="http://www.w3.org/2000/svg"><g fill="#8a8a8a"><path d="m898.5 541h-528.9c-17.7 0-32-14.3-32-32s14.3-32 32-32h528.9c17.7 0 32 14.3 32 32s-14.3 32-32 32z"/><path d="m927.3 533.6c-8.2 0-16.4-3.1-22.6-9.4l-192.3-192.4c-12.5-12.5-12.5-32.8 0-45.3s32.8-12.5 45.3 0l192.2 192.5c12.5 12.5 12.5 32.8 0 45.3-6.2 6.2-14.4 9.3-22.6 9.3z"/><path d="m734.7 740.9c-8.2 0-16.4-3.1-22.6-9.4-12.5-12.5-12.5-32.8 0-45.3l192.4-192.2c12.5-12.5 32.8-12.5 45.3 0s12.5 32.8 0 45.3l-192.5 192.2c-6.2 6.3-14.4 9.4-22.6 9.4z"/><path d="m614.1 955.9h-367.4c-48.2 0-93.7-18.9-128-53.2s-53.2-79.8-53.2-128v-528.7c0-48.2 18.9-93.7 53.2-128s79.8-53.2 128-53.2h367.4c17.7 0 32 14.3 32 32s-14.3 32-32 32h-367.4c-64.6 0-117.2 52.6-117.2 117.2v528.7c0 64.6 52.6 117.2 117.2 117.2h367.4c17.7 0 32 14.3 32 32s-14.3 32-32 32z"/></g></svg>