<?xml version="1.0" standalone="no"?><!DOCTYPE svg PUBLIC "-//W3C//DTD SVG 1.1//EN" "http://www.w3.org/Graphics/SVG/1.1/DTD/svg11.dtd"><svg t="1637067018333" class="icon" viewBox="0 0 1779 1024" version="1.1" xmlns="http://www.w3.org/2000/svg" p-id="7299" xmlns:xlink="http://www.w3.org/1999/xlink" width="111.1875" height="64"><defs><style type="text/css"></style></defs><path d="M1151.65302623 870.69999999a26.27840115 26.27840115 0 0 1-8.09260432-1.27857172L134.73755229 543.62640988a26.32352766 26.32352766 0 0 1 0.8874786-50.3757111l1322.19318388-375.74955309a26.32352766 26.32352766 0 0 1 31.22722509 36.10083767L1175.69016803 855.11647152a26.33856931 26.33856931 0 0 1-24.0371418 15.58352846z m-918.17968234-350.47896688l903.78447333 291.81510527L1417.97191503 183.62584659z" p-id="7300" fill="#515151"></path><path d="M658.57575072 907.5078125a26.32352766 26.32352766 0 0 1-26.27840191-24.93966204l-11.01075521-208.58763231a26.32352766 26.32352766 0 0 1 13.02638584-24.06722511l433.17996872-252.55544403a26.34157811 26.34157811 0 1 1 26.57924199 45.48705534l-419.37139897 244.40267155 6.73882355 127.69167171 67.95982701-77.88755745a26.32352766 26.32352766 0 1 1 39.66579524 34.59663648l-110.66410947 126.83427645a26.32352766 26.32352766 0 0 1-19.82537679 9.02520941z" p-id="7301" fill="#515151"></path></svg>