<svg height="64" viewBox="0 0 1024 1024" width="64" xmlns="http://www.w3.org/2000/svg"><path d="m853.319 551.563c0-18.85 15.28-34.132 34.131-34.132s34.132 15.28 34.132 34.132v250.537c0 65.223-48.815 119.462-110.928 119.462h-614.375c-62.112 0-110.928-54.24-110.928-119.462v-597.309c0-65.221 48.816-119.462 110.928-119.462h269.551c18.85 0 34.133 15.281 34.133 34.133s-15.281 34.132-34.133 34.132h-269.55c-22.715 0-42.665 22.167-42.665 51.198v597.308c0 29.031 19.95 51.198 42.664 51.198h614.375c22.714 0 42.665-22.167 42.665-51.198zm-303.01-4.109c-12.523 14.09-34.097 15.358-48.186 2.835s-15.358-34.098-2.835-48.186l341.32-383.985c12.522-14.089 34.097-15.358 48.186-2.834s15.357 34.097 2.834 48.186l-341.318 383.984z" fill="#515151"/></svg>