<?xml version="1.0" standalone="no"?><!DOCTYPE svg PUBLIC "-//W3C//DTD SVG 1.1//EN" "http://www.w3.org/Graphics/SVG/1.1/DTD/svg11.dtd"><svg t="1636459668462" class="icon" viewBox="0 0 1024 1024" version="1.1" xmlns="http://www.w3.org/2000/svg" p-id="2414" xmlns:xlink="http://www.w3.org/1999/xlink" width="64" height="64"><defs><style type="text/css"></style></defs><path d="M853.319 551.563c0-18.85 15.28-34.132 34.131-34.132s34.132 15.28 34.132 34.132V802.1c0 65.223-48.815 119.462-110.928 119.462H196.279c-62.112 0-110.928-54.24-110.928-119.462V204.791c0-65.221 48.816-119.462 110.928-119.462H465.83c18.85 0 34.133 15.281 34.133 34.133s-15.281 34.132-34.133 34.132H196.28c-22.715 0-42.665 22.167-42.665 51.198V802.1c0 29.031 19.95 51.198 42.664 51.198h614.375c22.714 0 42.665-22.167 42.665-51.198V551.563z m-303.01-4.109c-12.523 14.09-34.097 15.358-48.186 2.835s-15.358-34.098-2.835-48.186l341.32-383.985c12.522-14.089 34.097-15.358 48.186-2.834s15.357 34.097 2.834 48.186L550.31 547.454z" p-id="2415" fill="#515151"></path></svg>