<svg height="64" viewBox="0 0 1779 1024" width="111.1875" xmlns="http://www.w3.org/2000/svg"><g fill="#515151"><path d="m1151.65302623 870.69999999a26.27840115 26.27840115 0 0 1 -8.09260432-1.27857172l-1008.82286962-325.79501839a26.32352766 26.32352766 0 0 1 .8874786-50.3757111l1322.19318388-375.74955309a26.32352766 26.32352766 0 0 1 31.22722509 36.10083767l-313.35527183 701.51448816a26.33856931 26.33856931 0 0 1 -24.0371418 15.58352846zm-918.17968234-350.47896688 903.78447333 291.81510527 280.71409781-628.41029179z"/><path d="m658.57575072 907.5078125a26.32352766 26.32352766 0 0 1 -26.27840191-24.93966204l-11.01075521-208.58763231a26.32352766 26.32352766 0 0 1 13.02638584-24.06722511l433.17996872-252.55544403a26.34157811 26.34157811 0 1 1 26.57924199 45.48705534l-419.37139897 244.40267155 6.73882355 127.69167171 67.95982701-77.88755745a26.32352766 26.32352766 0 1 1 39.66579524 34.59663648l-110.66410947 126.83427645a26.32352766 26.32352766 0 0 1 -19.82537679 9.02520941z"/></g></svg>