<svg height="64" viewBox="0 0 1024 1024" width="64" xmlns="http://www.w3.org/2000/svg"><path d="m512 720.416 232.096 171.904a19.2 19.2 0 0 0 16.864 2.88c9.536-2.88 14.592-12.224 11.84-20.864l-88.96-281.6 237.344-176.96a16.48 16.48 0 0 0 6.816-13.152c0-9.152-7.904-16.928-18.112-16.96l-292-.448-88.48-277.12a17.568 17.568 0 0 0 -11.776-11.264c-9.856-2.976-20.16 2.304-23.04 11.264l-88.48 277.12-292 .48a18.624 18.624 0 0 0 -14.624 6.944 16.096 16.096 0 0 0 3.328 23.136l237.376 176.96-88.992 281.6a15.904 15.904 0 0 0 2.72 14.688c6.048 7.744 17.856 9.312 25.984 3.296zm-194.016 223.36a83.008 83.008 0 0 1 -114.56-15.424 79.904 79.904 0 0 1 -13.28-73.28l75.296-238.24-200.864-149.76a80.096 80.096 0 0 1 -15.424-113.92 82.624 82.624 0 0 1 64.864-31.456l245.312-.384 74.304-232.672c13.6-42.56 59.52-66.112 102.56-53.024a81.536 81.536 0 0 1 54.208 53.024l74.304 232.64 245.312.416c45.184.064 82.08 36.16 82.016 81.024a80.48 80.48 0 0 1 -32.576 64.352l-200.864 149.76 75.296 238.24c13.568 42.976-11.072 88.352-54.496 101.408a83.2 83.2 0 0 1 -73.344-12.736l-194.048-143.68-194.016 143.68z" fill="#707070"/></svg>