<svg height="64" viewBox="0 0 1024 1024" width="64" xmlns="http://www.w3.org/2000/svg"><path d="m828.416 947.2h-194.56c-40.96 0-74.24-33.28-74.24-74.24v-199.68c0-12.8-10.24-23.04-23.04-23.04h-48.64c-12.8 0-23.04 10.24-23.04 23.04v199.68c0 40.96-33.28 74.24-74.24 74.24h-194.56c-40.96 0-74.24-33.28-74.24-74.24v-275.968h-52.736c-3.072 0-5.632-.512-8.704-1.536-34.816-6.144-60.416-36.352-60.416-72.704 0-24.576 12.288-47.616 32.768-61.952l423.936-367.104c13.824-15.872 34.304-25.088 55.296-25.088s41.472 9.216 55.296 25.088l423.936 367.104c20.48 13.824 32.768 36.864 32.768 61.952 0 40.96-33.28 74.24-74.24 74.24h-47.616v275.968c.512 40.96-33.28 74.24-73.728 74.24zm-340.48-347.648h48.64c40.96 0 74.24 33.28 74.24 74.24v199.68c0 12.8 10.24 23.04 23.04 23.04h194.56c12.8 0 23.04-10.24 23.04-23.04v-301.568c0-14.336 11.264-25.6 25.6-25.6h73.216c12.8 0 23.04-10.24 23.04-23.04 0-7.68-4.096-15.36-11.264-19.968-1.024-.512-2.048-1.536-3.072-2.048l-426.496-369.664-3.072-3.072c-4.096-5.12-10.752-8.192-16.896-8.192-6.656 0-12.8 3.072-16.896 8.192l-3.072 3.072-427.52 369.152c-1.024 1.024-2.048 1.536-3.072 2.048-7.168 4.608-11.264 11.776-11.264 19.968 0 11.776 8.704 21.504 20.48 22.528 1.024 0 1.536 0 2.56.512h72.704c14.336 0 25.6 11.264 25.6 25.6v301.568c0 12.8 10.24 23.04 23.04 23.04h194.56c12.8 0 23.04-10.24 23.04-23.04v-199.68c1.024-40.448 34.304-73.728 75.264-73.728z" fill="#515151"/></svg>