<svg height="64" viewBox="0 0 1024 1024" width="64" xmlns="http://www.w3.org/2000/svg"><path d="m562.39328 293.696a32 32 0 0 1 -14.336 62.4 160 160 0 0 0 -185.056 214.336 32 32 0 1 1 -59.584 23.328 224 224 0 0 1 258.976-300.064zm-100.256 436.704a32 32 0 0 1 14.208-62.4 160 160 0 0 0 188.224-204.48 32 32 0 1 1 60.992-19.328 224 224 0 0 1 -263.456 286.208z"/><path d="m213.46528 676.096a32 32 0 1 1 -42.336 48c-39.072-34.496-93.632-98.528-164.672-192.832a32 32 0 0 1 -.992-37.12c148.704-221.44 317.76-334.144 506.56-334.144 52.704 0 104.096 8.832 154.016 26.496a32 32 0 0 1 -21.344 60.352 394.752 394.752 0 0 0 -132.672-22.848c-159.584 0-306.24 94.464-440.576 287.04 61.824 81.056 109.44 136.288 142.048 165.056zm599.808-325.76a32 32 0 0 1 42.592-47.808c38.368 34.24 91.968 97.376 161.728 190.24a32 32 0 0 1 .992 37.088c-148.704 221.44-317.76 334.144-506.56 334.144-37.824 0-74.944-4.544-111.36-13.664a32 32 0 0 1 15.488-62.08c31.36 7.84 63.264 11.744 95.872 11.744 159.584 0 306.24-94.464 440.576-287.04-60.64-79.712-107.328-134.112-139.328-162.656zm10.656-227.424a32 32 0 0 1 48.192 42.176l-672 768a32 32 0 0 1 -48.192-42.176l672-768z"/></svg>