<svg height="64" viewBox="0 0 1024 1024" width="64" xmlns="http://www.w3.org/2000/svg"><g fill="#8a8a8a"><path d="m780.16 1024h-536.32a170.88 170.88 0 0 1 -170.688-170.688v-316.928a170.88 170.88 0 0 1 170.688-170.688h536.384a170.816 170.816 0 0 1 170.624 170.688v316.928a170.88 170.88 0 0 1 -170.688 170.688zm-536.32-609.536a121.984 121.984 0 0 0 -121.92 121.92v316.928c0 67.264 54.656 121.984 121.92 121.984h536.384c67.2 0 121.856-54.72 121.856-121.984v-316.928a121.984 121.984 0 0 0 -121.856-121.92z"/><path d="m243.84 414.464a24.32 24.32 0 0 1 -24.384-24.384v-121.92c0-149.44 124.224-266.688 283.456-268.16h3.008c156.608 1.472 274.304 116.288 274.304 268.16v48.768a24.32 24.32 0 0 1 -48.768 0v-48.768c0-124.608-97.536-218.688-227.072-219.456-132.544.768-236.224 96.896-236.224 219.456v121.92a24.32 24.32 0 0 1 -24.32 24.384zm268.16 390.08a146.432 146.432 0 0 1 -146.304-146.24 146.496 146.496 0 0 1 146.304-146.304 146.496 146.496 0 0 1 146.304 146.304 146.496 146.496 0 0 1 -146.304 146.24zm0-243.776c-53.76 0-97.536 43.776-97.536 97.536s43.712 97.6 97.536 97.6c53.76 0 97.536-43.776 97.536-97.536s-43.84-97.6-97.536-97.6z"/><path d="m512 902.144a24.448 24.448 0 0 1 -24.384-24.448v-73.152c0-13.44 10.944-24.448 24.384-24.448s24.384 11.008 24.384 24.448v73.152a24.448 24.448 0 0 1 -24.384 24.448z"/></g></svg>