<svg height="64" viewBox="0 0 1024 1024" width="64" xmlns="http://www.w3.org/2000/svg"><g fill="#8a8a8a"><path d="m192 344.64h-64v-152.64a96 96 0 0 1 96-96h608a96 96 0 0 1 96 96v640a96 96 0 0 1 -96 96h-608a96 96 0 0 1 -96-96v-126.272h64v126.272a32 32 0 0 0 32 32h608a32 32 0 0 0 32-32v-640a32 32 0 0 0 -32-32h-608a32 32 0 0 0 -32 32z"/><path d="m538.688 410.848a32 32 0 1 1 39.808-50.112l148.32 117.856c23.744 18.848 10.4 57.056-19.904 57.056h-634.08a32 32 0 1 1 0-64h542.368l-76.48-60.8z"/></g></svg>