<svg height="64" viewBox="0 0 1024 1024" width="64" xmlns="http://www.w3.org/2000/svg"><path d="m858.026667 307.2h-672c-12.373333 0-22.186667-9.813333-22.186667-22.186667v-23.466666c0-12.373333 9.813333-22.186667 22.186667-22.186667h672c12.373333 0 22.186667 9.813333 22.186666 22.186667v23.466666c0 12.373333-9.813333 22.186667-22.186666 22.186667zm0 238.933333h-672c-12.373333 0-22.186667-9.813333-22.186667-22.186666v-23.466667c0-12.373333 9.813333-22.186667 22.186667-22.186667h672c12.373333 0 22.186667 9.813333 22.186666 22.186667v23.466667c0 12.373333-9.813333 22.186667-22.186666 22.186666zm0 238.933334h-672c-12.373333 0-22.186667-9.813333-22.186667-22.186667v-23.466667c0-12.373333 9.813333-22.186667 22.186667-22.186666h672c12.373333 0 22.186667 9.813333 22.186666 22.186666v23.466667c0 12.373333-9.813333 22.186667-22.186666 22.186667z" fill="#515151"/></svg>