<svg height="64" viewBox="0 0 1024 1024" width="64" xmlns="http://www.w3.org/2000/svg"><g fill="#666"><path d="m768 384c0-160-128-288-288-288s-288 128-288 288c0 108.8 57.6 201.6 147.2 249.6-121.6 48-214.4 153.6-240 288-3.2 16 6.4 35.2 25.6 38.4h3.2c16 0 28.8-9.6 32-25.6 28.8-150.4 160-259.2 313.6-262.4h6.4c160 0 288-128 288-288zm-512 0c0-124.8 99.2-224 224-224s224 99.2 224 224c0 121.6-99.2 220.8-220.8 224h-9.6c-121.6-3.2-217.6-102.4-217.6-224zm640 320h-256c-19.2 0-32 12.8-32 32v192c0 19.2 12.8 32 32 32h256c19.2 0 32-12.8 32-32v-192c0-16-12.8-32-32-32zm-32 192h-192v-128h192z"/><path d="m736 864h32c19.2 0 32-12.8 32-32s-12.8-32-32-32h-32c-19.2 0-32 12.8-32 32s16 32 32 32z"/></g></svg>