<svg height="64" viewBox="0 0 1024 1024" width="64" xmlns="http://www.w3.org/2000/svg"><g fill="#515151"><path d="m806.912 363.9296c0-162.4064-131.6864-294.2976-294.2976-294.2976-162.4064 0-294.2976 131.6864-294.2976 294.2976-64.9216 0-117.76 52.6336-117.76 117.76v353.0752c0 64.9216 52.6336 117.76 117.76 117.76h588.5952c64.9216 0 117.76-52.6336 117.76-117.76v-353.0752c-.2048-64.9216-52.8384-117.76-117.76-117.76zm-294.2976-235.3152c130.048 0 235.3152 105.472 235.3152 235.3152h-470.6304c0-129.8432 105.472-235.3152 235.3152-235.3152zm353.0752 682.5984c0 45.4656-36.864 82.3296-82.3296 82.3296h-541.2864c-45.4656 0-82.3296-36.864-82.3296-82.3296v-305.9712c0-45.4656 36.864-82.3296 82.3296-82.3296h541.2864c45.4656 0 82.3296 36.864 82.3296 82.3296zm0 0"/><path d="m512.6144 472.6784c-64.9216 0-117.76 52.6336-117.76 117.76 0 54.8864 37.4784 100.9664 88.2688 114.0736v110.1824c0 16.1792 13.1072 29.4912 29.4912 29.4912 16.1792 0 29.4912-13.1072 29.4912-29.4912v-110.1824c50.7904-13.1072 88.2688-59.1872 88.2688-114.0736 0-65.1264-52.6336-117.76-117.76-117.76zm0 176.5376c-32.5632 0-58.7776-26.4192-58.7776-58.7776 0-32.5632 26.4192-58.7776 58.7776-58.7776 32.5632 0 58.7776 26.4192 58.7776 58.7776.2048 32.3584-26.2144 58.7776-58.7776 58.7776zm0 0"/></g></svg>