<svg height="64" viewBox="0 0 1024 1024" width="64" xmlns="http://www.w3.org/2000/svg"><g fill="#8a8a8a"><path d="m581.056 288.32h-348.096l108.352-102.208c15.552-15.744 19.456-31.104 4.16-46.208-16.064-15.872-32.576-15.808-48.64 0l-145.92 144.768c-8.768 8.832-23.488 20.608-22.08 32.448l.64 4.8-.64 4.864c-1.344 11.776 6.4 18.24 14.848 26.816l147.648 145.216c16.064 15.808 38.08 20.992 54.144 5.12 15.296-15.104 3.84-38.208-11.328-53.504l-100.992-96.832 347.904-1.6c126.464 0 250.944 111.488 250.944 236.16s-124.48 243.84-250.944 243.84h-334.656c-22.592 0-29.696 9.6-29.696 32.256s7.04 31.744 29.696 31.744h334.72c174.016 0 314.88-138.304 314.88-307.84 0-169.408-140.8-299.84-314.944-299.84z"/><path d="m323.392 192a32 32 0 1 1 0-64 32 32 0 0 1 0 64zm-3.2 322.048a32 32 0 1 1 0-64 32 32 0 0 1 0 64zm-82.368 381.952a32 32 0 1 1 0-64 32 32 0 0 1 0 64z"/></g></svg>