<svg height="64" viewBox="0 0 1024 1024" width="64" xmlns="http://www.w3.org/2000/svg"><path d="m512 64c-154.528 0-416 26.944-416 128v634.528c0 101.024 261.472 128 416 128 154.496 0 416-26.976 416-128v-634.528c0-101.056-261.504-128-416-128zm-352 393.728c87.328 41.344 245.184 54.272 352 54.272 106.88 0 264.864-12.96 352.16-54.368l.096 148.256c-11.904 23.84-139.2 66.112-352.256 66.112-212.096 0-339.136-41.888-352-65.76zm352-9.728c-212.096 0-339.136-41.888-352-65.76v-116.48c87.328 41.312 245.184 54.24 352 54.24 106.848 0 264.736-12.928 352.032-54.304l.064 116.384c-12.448 23.872-139.584 65.92-352.096 65.92zm0-320c206.88 0 332.96 39.872 351.008 64-18.048 24.128-144.128 64-351.008 64s-332.96-39.872-350.976-64c18.016-24.128 144.096-64 350.976-64zm0 762.528c-213.568 0-341.056-42.496-352-64v-144.8c87.328 41.344 245.184 54.272 352 54.272 106.944 0 265.056-12.992 352.32-54.432l.096 142.688c-11.392 23.776-138.848 66.272-352.416 66.272z" fill="#8a8a8a"/></svg>