<svg height="128" viewBox="0 0 1024 1024" width="128" xmlns="http://www.w3.org/2000/svg"><g fill="#8a8a8a"><path d="m543.107825 255.51394h-421.592885c-17.498151 0-31.721795-14.223643-31.721795-31.721795s14.223643-31.721795 31.721795-31.721795h421.592885c17.498151 0 31.721795 14.223643 31.721795 31.721795s-14.223644 31.721795-31.721795 31.721795z"/><path d="m543.107825 575.494754h-421.592885c-17.498151 0-31.721795-14.223643-31.721795-31.721795s14.223643-31.721795 31.721795-31.721795h421.592885c17.498151 0 31.721795 14.223643 31.721795 31.721795s-14.223644 31.721795-31.721795 31.721795z"/><path d="m543.107825 895.066254h-421.592885c-17.498151 0-31.721795-14.223643-31.721795-31.721795s14.223643-31.721795 31.721795-31.721795h421.592885c17.498151 0 31.721795 14.223643 31.721795 31.721795s-14.223644 31.721795-31.721795 31.721795z"/><path d="m913.331868 685.190766c-12.381733-12.381733-32.438093-12.381733-44.819826 0l-101.202758 101.202759v-562.396723c0-17.498151-14.223643-31.721795-31.721795-31.721795s-31.721795 14.223643-31.721795 31.721795v639.552313c0 17.498151 14.223643 31.721795 31.721795 31.721795 7.776956 0 14.837614-2.762866 20.363346-7.367643.818627-.716299 157.381033-157.790347 157.381033-157.790347 12.381732-12.381732 12.381732-32.540421 0-44.922154z"/></g></svg>