<svg height="64" viewBox="0 0 1024 1024" width="64" xmlns="http://www.w3.org/2000/svg"><g fill="#8a8a8a"><path d="m867.584 160.192c-149.632-16.928-262.208-57.408-334.592-120.352l-19.04-16.544-20.544 14.656c-113.44 80.992-225.632 122.048-333.408 122.048h-32v448c0 137.344 121.088 261.92 370.208 380.864l13.088 6.24 13.344-5.728c246.432-105.856 371.36-234.144 371.36-381.376v-444.576zm-35.584 447.808c0 116.8-107.392 223.36-319.328 316.8-212.8-103.776-320.672-210.336-320.672-316.8v-385.024c104.672-6.784 211.584-46.688 318.496-118.944 76.736 58.496 184.672 97.504 321.504 116.224z"/><path d="m359.776 468.672a32 32 0 1 0 -47.968 42.4l121.792 137.824c12.608 14.24 30.176 21.568 47.904 21.568a64.384 64.384 0 0 0 49.696-23.52l197.6-242.72a32 32 0 0 0 -49.632-40.416l-197.6 242.688z"/></g></svg>