<svg height="64" viewBox="0 0 1024 1024" width="64" xmlns="http://www.w3.org/2000/svg"><g fill="#8a8a8a"><path d="m928.16 144h-192.16v-80a32 32 0 0 0 -32-32h-384a32 32 0 0 0 -32 32v80h-192.16a32 32 0 0 0 0 64h33.76l77.92 698.656a96 96 0 0 0 95.392 85.344h418.144a96.032 96.032 0 0 0 95.424-85.344l77.92-698.656h33.728a32 32 0 0 0 .032-64zm-576.16-48h320v48h-320zm400.896 803.552a32 32 0 0 1 -31.808 28.448h-418.176a32 32 0 0 1 -31.808-28.448l-77.12-691.552h636.032z"/><path d="m608 820.928a32 32 0 0 0 32-32v-469.824a32 32 0 0 0 -64 0v469.824a32 32 0 0 0 32 32zm-176 0a32 32 0 0 0 32-32v-469.824a32 32 0 0 0 -64 0v469.824a32 32 0 0 0 32 32z"/></g></svg>