<svg height="64" viewBox="0 0 1024 1024" width="64" xmlns="http://www.w3.org/2000/svg"><g fill="#8a8a8a"><path d="m384 96h-192a96 96 0 0 0 -96 96v192a96 96 0 0 0 96 96h192a96 96 0 0 0 96-96v-192a96 96 0 0 0 -96-96zm32 288a32 32 0 0 1 -32 32h-192a32 32 0 0 1 -32-32v-192a32 32 0 0 1 32-32h192a32 32 0 0 1 32 32zm-32 160h-192a96 96 0 0 0 -96 96v192a96 96 0 0 0 96 96h192a96 96 0 0 0 96-96v-192a96 96 0 0 0 -96-96zm32 288a32 32 0 0 1 -32 32h-192a32 32 0 0 1 -32-32v-192a32 32 0 0 1 32-32h192a32 32 0 0 1 32 32zm416-288h-192a96 96 0 0 0 -96 96v192a96 96 0 0 0 96 96h192a96 96 0 0 0 96-96v-192a96 96 0 0 0 -96-96zm32 288a32 32 0 0 1 -32 32h-192a32 32 0 0 1 -32-32v-192a32 32 0 0 1 32-32h192a32 32 0 0 1 32 32z"/><path d="m544 288a192 192 0 1 0 384 0 192 192 0 1 0 -384 0z"/></g></svg>