<?xml version="1.0" standalone="no"?><!DOCTYPE svg PUBLIC "-//W3C//DTD SVG 1.1//EN" "http://www.w3.org/Graphics/SVG/1.1/DTD/svg11.dtd"><svg t="1635750170879" class="icon" viewBox="0 0 1024 1024" version="1.1" xmlns="http://www.w3.org/2000/svg" p-id="1649" xmlns:xlink="http://www.w3.org/1999/xlink" width="64" height="64"><defs><style type="text/css"></style></defs><path d="M831.0784 353.6896c0-176.3328-141.1072-317.44-317.44-317.44s-317.44 141.1072-317.44 317.44c0 119.808 63.488 222.208 162.2016 275.0464-133.7344 53.0432-236.1344 169.3696-264.192 317.44-3.4816 17.6128 6.9632 38.7072 28.2624 42.3936h6.9632c17.6128 0 31.744-10.6496 35.2256-28.2624 31.744-165.6832 176.3328-285.696 345.4976-289.1776h6.9632c172.8512 0 313.9584-141.1072 313.9584-317.44z m-564.224 0c0-137.4208 109.3632-246.784 246.784-246.784s246.784 109.3632 246.784 246.784c0 133.9392-109.3632 243.3024-243.3024 246.784h-10.6496c-133.7344-3.4816-239.616-112.64-239.616-246.784z m479.6416 320.9216c-17.6128-10.6496-38.7072-6.9632-49.3568 10.6496-10.6496 17.6128-6.9632 38.7072 10.6496 49.3568 81.1008 56.32 137.4208 133.9392 155.2384 225.6896 3.4816 17.6128 17.6128 28.2624 35.2256 28.2624h6.9632c17.6128-3.4816 31.744-21.0944 28.2624-42.3936-21.2992-109.3632-88.2688-204.5952-186.9824-271.5648z m0 0" p-id="1650" fill="#515151"></path></svg>