<?xml version="1.0" standalone="no"?><!DOCTYPE svg PUBLIC "-//W3C//DTD SVG 1.1//EN" "http://www.w3.org/Graphics/SVG/1.1/DTD/svg11.dtd"><svg t="1636442422785" class="icon" viewBox="0 0 1025 1024" version="1.1" xmlns="http://www.w3.org/2000/svg" p-id="9164" xmlns:xlink="http://www.w3.org/1999/xlink" width="64.0625" height="64"><defs><style type="text/css"></style></defs><path d="M514.9637037 893.30201058a383.12857143 383.12857143 0 1 0 0-766.25714286 383.12857143 383.12857143 0 0 0 0 766.25714286z m0 69.65904762a452.78857143 452.78857143 0 1 1 0-905.57619048 452.78857143 452.78857143 0 0 1 0 905.57619048zM62.17417989 475.34391534h835.91714286v69.66H62.17417989V475.34391534z m452.78952381 417.95904762c62.2047619 0 139.31809524-166.97428571 139.31809524-383.12952381s-77.11333333-383.12761905-139.31714286-383.12761904-139.32095238 166.97428571-139.32095238 383.12666666 77.11333333 383.12952381 139.32 383.12952381z m0 69.65904762c-115.42857143 0-208.98095238-202.70952381-208.98095238-452.78857143s93.55238095-452.78761905 208.98095238-452.78761904S723.94179894 260.09534392 723.94179894 510.17153439 630.38941799 962.96296296 514.96465608 962.96296296z" p-id="9165" fill="#515151"></path></svg>