<svg height="64" viewBox="0 0 1024 1024" width="64" xmlns="http://www.w3.org/2000/svg"><g fill="#8a8a8a"><path d="m512 736a224 224 0 1 1 0-448 224 224 0 0 1 0 448zm0-64a160 160 0 1 0 0-320 160 160 0 0 0 0 320z"/><path d="m512 864c-188.768 0-357.856-112.736-506.56-334.144a32 32 0 0 1 0-35.712c148.704-221.44 317.76-334.144 506.56-334.144 188.768 0 357.856 112.736 506.56 334.144a32 32 0 0 1 0 35.712c-148.704 221.44-317.76 334.144-506.56 334.144zm0-64c159.84 0 306.72-94.784 441.248-288-134.528-193.216-281.408-288-441.248-288s-306.72 94.784-441.248 288c134.528 193.216 281.408 288 441.248 288z"/></g></svg>